<?xml version="1.0" encoding="utf-8"?>
<svg viewBox="229.402 78.446 245.9125 31.2" xmlns="http://www.w3.org/2000/svg">
  <path d="M 231.62 104.05 L 231.62 84 L 246.11 84 L 246.11 86.37 L 234.27 86.37 L 234.27 92.51 L 245.36 92.51 L 245.36 94.86 L 234.27 94.86 L 234.27 101.68 L 246.57 101.68 L 246.57 104.05 Z M 246.85 104.05 L 246.85 89.53 L 249.06 89.53 L 249.06 91.59 Q 250.66 89.2 253.68 89.2 Q 255 89.2 256.1 89.67 Q 257.2 90.14 257.74 90.91 Q 258.29 91.67 258.51 92.73 Q 258.65 93.41 258.65 95.12 L 258.65 104.05 L 256.19 104.05 L 256.19 95.21 Q 256.19 93.71 255.9 92.96 Q 255.61 92.22 254.88 91.78 Q 254.15 91.33 253.16 91.33 Q 251.59 91.33 250.45 92.33 Q 249.31 93.33 249.31 96.12 L 249.31 104.05 Z M 267.82 101.84 L 268.18 104.02 Q 267.14 104.24 266.32 104.24 Q 264.98 104.24 264.24 103.81 Q 263.5 103.39 263.2 102.7 Q 262.9 102.01 262.9 99.79 L 262.9 91.44 L 261.09 91.44 L 261.09 89.53 L 262.9 89.53 L 262.9 85.93 L 265.35 84.45 L 265.35 89.53 L 267.82 89.53 L 267.82 91.44 L 265.35 91.44 L 265.35 99.93 Q 265.35 100.98 265.48 101.28 Q 265.61 101.59 265.9 101.76 Q 266.19 101.94 266.74 101.94 Q 267.15 101.94 267.82 101.84 Z M 281.75 99.37 L 284.29 99.68 Q 283.69 101.91 282.06 103.14 Q 280.43 104.37 277.91 104.37 Q 274.72 104.37 272.85 102.41 Q 270.99 100.45 270.99 96.91 Q 270.99 93.25 272.87 91.22 Q 274.76 89.2 277.77 89.2 Q 280.68 89.2 282.53 91.18 Q 284.37 93.16 284.37 96.76 Q 284.37 96.98 284.36 97.42 L 273.53 97.42 Q 273.67 99.81 274.88 101.08 Q 276.1 102.35 277.92 102.35 Q 279.27 102.35 280.23 101.64 Q 281.19 100.93 281.75 99.37 Z M 273.67 95.39 L 281.77 95.39 Q 281.61 93.56 280.84 92.64 Q 279.67 91.22 277.8 91.22 Q 276.1 91.22 274.95 92.36 Q 273.79 93.49 273.67 95.39 Z M 287.38 104.05 L 287.38 89.53 L 289.6 89.53 L 289.6 91.73 Q 290.44 90.18 291.16 89.69 Q 291.88 89.2 292.74 89.2 Q 293.98 89.2 295.27 89.99 L 294.42 92.27 Q 293.52 91.74 292.62 91.74 Q 291.81 91.74 291.17 92.23 Q 290.52 92.71 290.25 93.57 Q 289.84 94.89 289.84 96.44 L 289.84 104.05 Z M 302.9 109.64 L 302.62 107.33 Q 303.43 107.55 304.03 107.55 Q 304.85 107.55 305.35 107.27 Q 305.84 107 306.15 106.51 Q 306.38 106.14 306.9 104.67 Q 306.97 104.47 307.12 104.07 L 301.61 89.53 L 304.27 89.53 L 307.29 97.93 Q 307.87 99.53 308.34 101.3 Q 308.76 99.6 309.35 97.99 L 312.45 89.53 L 314.92 89.53 L 309.39 104.29 Q 308.5 106.68 308.01 107.59 Q 307.36 108.8 306.51 109.37 Q 305.66 109.94 304.48 109.94 Q 303.77 109.94 302.9 109.64 Z M 317.69 96.79 Q 317.69 92.75 319.93 90.81 Q 321.81 89.2 324.5 89.2 Q 327.49 89.2 329.39 91.16 Q 331.3 93.12 331.3 96.58 Q 331.3 99.38 330.45 100.99 Q 329.61 102.6 328.01 103.49 Q 326.4 104.37 324.5 104.37 Q 321.45 104.37 319.57 102.42 Q 317.69 100.46 317.69 96.79 Z M 320.22 96.79 Q 320.22 99.58 321.44 100.96 Q 322.65 102.35 324.5 102.35 Q 326.33 102.35 327.55 100.96 Q 328.77 99.56 328.77 96.7 Q 328.77 94.01 327.54 92.62 Q 326.32 91.24 324.5 91.24 Q 322.65 91.24 321.44 92.62 Q 320.22 94 320.22 96.79 Z M 343.72 104.05 L 343.72 101.91 Q 342.03 104.37 339.12 104.37 Q 337.83 104.37 336.72 103.88 Q 335.6 103.39 335.06 102.64 Q 334.52 101.9 334.3 100.82 Q 334.15 100.09 334.15 98.52 L 334.15 89.53 L 336.61 89.53 L 336.61 97.58 Q 336.61 99.51 336.76 100.18 Q 337 101.15 337.75 101.7 Q 338.5 102.25 339.61 102.25 Q 340.72 102.25 341.69 101.69 Q 342.66 101.12 343.06 100.14 Q 343.46 99.17 343.46 97.31 L 343.46 89.53 L 345.92 89.53 L 345.92 104.05 Z M 349.78 104.05 L 349.78 89.53 L 352 89.53 L 352 91.73 Q 352.84 90.18 353.56 89.69 Q 354.28 89.2 355.14 89.2 Q 356.38 89.2 357.67 89.99 L 356.82 92.27 Q 355.92 91.74 355.02 91.74 Q 354.21 91.74 353.57 92.23 Q 352.92 92.71 352.65 93.57 Q 352.24 94.89 352.24 96.44 L 352.24 104.05 Z M 370.78 101.84 L 371.14 104.02 Q 370.1 104.24 369.28 104.24 Q 367.94 104.24 367.2 103.81 Q 366.46 103.39 366.16 102.7 Q 365.86 102.01 365.86 99.79 L 365.86 91.44 L 364.05 91.44 L 364.05 89.53 L 365.86 89.53 L 365.86 85.93 L 368.31 84.45 L 368.31 89.53 L 370.78 89.53 L 370.78 91.44 L 368.31 91.44 L 368.31 99.93 Q 368.31 100.98 368.44 101.28 Q 368.57 101.59 368.86 101.76 Q 369.15 101.94 369.7 101.94 Q 370.11 101.94 370.78 101.84 Z M 384.71 99.37 L 387.25 99.68 Q 386.65 101.91 385.02 103.14 Q 383.39 104.37 380.87 104.37 Q 377.68 104.37 375.81 102.41 Q 373.95 100.45 373.95 96.91 Q 373.95 93.25 375.83 91.22 Q 377.72 89.2 380.73 89.2 Q 383.64 89.2 385.49 91.18 Q 387.33 93.16 387.33 96.76 Q 387.33 96.98 387.32 97.42 L 376.49 97.42 Q 376.63 99.81 377.84 101.08 Q 379.06 102.35 380.88 102.35 Q 382.23 102.35 383.19 101.64 Q 384.15 100.93 384.71 99.37 Z M 376.63 95.39 L 384.73 95.39 Q 384.57 93.56 383.8 92.64 Q 382.63 91.22 380.76 91.22 Q 379.06 91.22 377.91 92.36 Q 376.75 93.49 376.63 95.39 Z M 388.73 104.05 L 394.03 96.5 L 389.12 89.53 L 392.2 89.53 L 394.43 92.93 Q 395.06 93.9 395.44 94.56 Q 396.04 93.66 396.55 92.96 L 398.99 89.53 L 401.93 89.53 L 396.92 96.36 L 402.32 104.05 L 399.3 104.05 L 396.31 99.53 L 395.52 98.32 L 391.71 104.05 Z M 408.22 101.84 L 408.58 104.02 Q 407.54 104.24 406.72 104.24 Q 405.38 104.24 404.64 103.81 Q 403.9 103.39 403.6 102.7 Q 403.3 102.01 403.3 99.79 L 403.3 91.44 L 401.49 91.44 L 401.49 89.53 L 403.3 89.53 L 403.3 85.93 L 405.75 84.45 L 405.75 89.53 L 408.22 89.53 L 408.22 91.44 L 405.75 91.44 L 405.75 99.93 Q 405.75 100.98 405.88 101.28 Q 406.01 101.59 406.3 101.76 Q 406.59 101.94 407.14 101.94 Q 407.55 101.94 408.22 101.84 Z M 418.45 104.05 L 418.45 84 L 420.91 84 L 420.91 91.19 Q 422.63 89.2 425.26 89.2 Q 426.87 89.2 428.06 89.83 Q 429.25 90.47 429.76 91.59 Q 430.27 92.71 430.27 94.84 L 430.27 104.05 L 427.81 104.05 L 427.81 94.84 Q 427.81 93 427.01 92.16 Q 426.21 91.32 424.75 91.32 Q 423.66 91.32 422.69 91.88 Q 421.73 92.45 421.32 93.42 Q 420.91 94.39 420.91 96.1 L 420.91 104.05 Z M 443.99 99.37 L 446.53 99.68 Q 445.93 101.91 444.3 103.14 Q 442.67 104.37 440.15 104.37 Q 436.96 104.37 435.09 102.41 Q 433.23 100.45 433.23 96.91 Q 433.23 93.25 435.11 91.22 Q 437 89.2 440.01 89.2 Q 442.92 89.2 444.77 91.18 Q 446.61 93.16 446.61 96.76 Q 446.61 96.98 446.6 97.42 L 435.77 97.42 Q 435.91 99.81 437.12 101.08 Q 438.34 102.35 440.16 102.35 Q 441.51 102.35 442.47 101.64 Q 443.43 100.93 443.99 99.37 Z M 435.91 95.39 L 444.01 95.39 Q 443.85 93.56 443.08 92.64 Q 441.91 91.22 440.04 91.22 Q 438.34 91.22 437.19 92.36 Q 436.03 93.49 435.91 95.39 Z M 449.62 104.05 L 449.62 89.53 L 451.84 89.53 L 451.84 91.73 Q 452.68 90.18 453.4 89.69 Q 454.12 89.2 454.98 89.2 Q 456.22 89.2 457.51 89.99 L 456.66 92.27 Q 455.76 91.74 454.86 91.74 Q 454.05 91.74 453.41 92.23 Q 452.76 92.71 452.49 93.57 Q 452.08 94.89 452.08 96.44 L 452.08 104.05 Z M 468.95 99.37 L 471.49 99.68 Q 470.89 101.91 469.26 103.14 Q 467.63 104.37 465.11 104.37 Q 461.92 104.37 460.05 102.41 Q 458.19 100.45 458.19 96.91 Q 458.19 93.25 460.07 91.22 Q 461.96 89.2 464.97 89.2 Q 467.88 89.2 469.73 91.18 Q 471.57 93.16 471.57 96.76 Q 471.57 96.98 471.56 97.42 L 460.73 97.42 Q 460.87 99.81 462.08 101.08 Q 463.3 102.35 465.12 102.35 Q 466.47 102.35 467.43 101.64 Q 468.39 100.93 468.95 99.37 Z M 460.87 95.39 L 468.97 95.39 Q 468.81 93.56 468.04 92.64 Q 466.87 91.22 465 91.22 Q 463.3 91.22 462.15 92.36 Q 460.99 93.49 460.87 95.39 Z" style="fill: rgb(51, 51, 51);"/>
</svg>