<svg width="1194.7" height="109.801" viewBox="0 0 1194.7 109.801" xmlns="http://www.w3.org/2000/svg"><g id="svgGroup" stroke-linecap="round" fill-rule="evenodd" font-size="9pt" stroke="#000" stroke-width="0.25mm" fill="#000" style="stroke:#000;stroke-width:0.25mm;fill:#000"><path d="M 6.2 76.9 L 30.3 7.9 L 41.3 7.9 L 65.6 76.9 L 71.8 77.9 L 71.8 82.8 L 45.4 82.8 L 45.4 77.9 L 53.7 76.9 L 49 62.1 L 19.8 62.1 L 15.1 76.9 L 23.7 77.9 L 23.7 82.8 L 0 82.8 L 0 77.9 L 6.2 76.9 Z M 47.1 56.2 L 36.6 23.9 L 34.1 15.1 L 31.7 24.1 L 21.6 56.2 L 47.1 56.2 Z" id="0" vector-effect="non-scaling-stroke"/><path d="M 115 79 L 115 75.6 A 28.619 28.619 0 0 1 110.566 79.193 A 37.344 37.344 0 0 1 106.75 81.4 A 23.479 23.479 0 0 1 100.874 83.484 A 20.242 20.242 0 0 1 96.8 83.9 A 27.122 27.122 0 0 1 92.026 83.51 Q 89.482 83.054 87.513 82.065 A 11.331 11.331 0 0 1 83.6 78.9 Q 80.084 74.392 79.738 64.599 A 62.341 62.341 0 0 1 79.7 62.4 L 79.7 33.4 L 74.1 31.8 L 74.1 27.4 L 88.1 26.1 L 88.2 26.1 L 90.1 27.3 L 90.1 61.6 Q 90.1 66.977 90.831 70.163 A 16.539 16.539 0 0 0 90.95 70.65 Q 91.708 73.547 93.498 75.093 A 6.565 6.565 0 0 0 93.95 75.45 A 7.151 7.151 0 0 0 95.996 76.446 Q 96.955 76.749 98.122 76.886 A 17.84 17.84 0 0 0 100.2 77 Q 104.2 77 107.7 75.3 Q 111.2 73.6 113.8 71.3 L 113.8 33.4 L 106.6 31.8 L 106.6 27.4 L 121.8 26.1 L 121.9 26.1 L 124.2 27.3 L 124.2 77.7 L 130.2 77.7 L 130.1 82.2 A 129.967 129.967 0 0 1 128.105 82.683 Q 127.122 82.912 126.252 83.096 A 65.906 65.906 0 0 1 125.25 83.3 A 20.102 20.102 0 0 1 123.332 83.574 Q 122.347 83.668 121.247 83.692 A 34.635 34.635 0 0 1 120.5 83.7 A 11.418 11.418 0 0 1 119.04 83.613 Q 117.32 83.391 116.35 82.6 A 3.355 3.355 0 0 1 115.317 81.094 Q 115.114 80.528 115.041 79.828 A 8 8 0 0 1 115 79 Z" id="1" vector-effect="non-scaling-stroke"/><path d="M 144 72.3 L 144 33.9 L 136.8 33.9 L 136.8 29.4 Q 137.3 29.3 139.6 28.7 Q 141.84 28.116 142.657 27.626 A 2.647 2.647 0 0 0 142.7 27.6 A 4.168 4.168 0 0 0 143.925 26.52 Q 144.338 25.996 144.68 25.291 A 10.678 10.678 0 0 0 145.2 24 A 20.17 20.17 0 0 0 145.619 22.906 Q 146.065 21.645 146.589 19.785 A 105.696 105.696 0 0 0 147.1 17.9 Q 148.041 14.306 148.324 13.202 A 61.842 61.842 0 0 0 148.4 12.9 L 154.3 12.9 L 154.5 27.3 L 171.2 27.3 L 171.2 33.9 L 154.5 33.9 L 154.5 64.6 Q 154.5 70.205 154.838 72.523 A 13.067 13.067 0 0 0 154.85 72.6 Q 155.153 74.593 156.057 75.385 A 2.107 2.107 0 0 0 156.35 75.6 Q 157.5 76.3 160.3 76.3 Q 162.979 76.3 166.199 75.611 A 39.154 39.154 0 0 0 166.25 75.6 Q 169.5 74.9 171.3 74.1 L 172.8 78.6 A 13.674 13.674 0 0 1 171.064 79.688 Q 169.143 80.718 166.222 81.714 A 58.538 58.538 0 0 1 165.05 82.1 A 40.057 40.057 0 0 1 160.551 83.262 Q 157.775 83.8 155.3 83.8 Q 151.668 83.8 149.213 82.744 A 8.366 8.366 0 0 1 146.8 81.2 A 7.48 7.48 0 0 1 144.987 78.477 Q 144.062 76.193 144.004 72.763 A 27.435 27.435 0 0 1 144 72.3 Z" id="2" vector-effect="non-scaling-stroke"/><path d="M 186.7 77 L 186.7 35 L 179.1 33.2 L 179.1 27.9 L 194.6 26 L 194.8 26 L 197.1 27.8 L 197.1 77.1 L 205.1 77.9 L 205.1 82.8 L 178.6 82.8 L 178.6 77.9 L 186.7 77 Z M 190.8 17.3 L 190.7 17.3 A 9.047 9.047 0 0 1 188.856 17.124 Q 187.754 16.895 186.919 16.365 A 4.778 4.778 0 0 1 185.9 15.5 Q 184.3 13.7 184.3 10.9 A 8.616 8.616 0 0 1 184.67 8.321 A 7.03 7.03 0 0 1 186.25 5.6 A 6.422 6.422 0 0 1 189.896 3.648 A 9.361 9.361 0 0 1 191.6 3.5 Q 193.823 3.5 195.277 4.27 A 4.684 4.684 0 0 1 196.6 5.3 Q 198.2 7.1 198.2 9.9 A 9.613 9.613 0 0 1 197.948 12.163 A 6.63 6.63 0 0 1 196.25 15.3 A 6.389 6.389 0 0 1 193.115 17.042 Q 192.091 17.292 190.878 17.3 A 12.152 12.152 0 0 1 190.8 17.3 Z" id="3" vector-effect="non-scaling-stroke"/><path d="M 219.7 67 L 221.5 74.8 A 4.298 4.298 0 0 0 222.371 75.73 Q 223.302 76.49 224.892 77.161 A 20.019 20.019 0 0 0 225.75 77.5 Q 229 78.7 232.6 78.7 Q 238.3 78.7 241 76.5 A 7.182 7.182 0 0 0 243.647 71.464 A 10.305 10.305 0 0 0 243.7 70.4 Q 243.7 67.7 242 65.7 A 12.25 12.25 0 0 0 240.11 63.924 Q 239.141 63.181 237.941 62.516 A 21.967 21.967 0 0 0 237.25 62.15 Q 234.2 60.6 228.5 58.4 A 43.602 43.602 0 0 1 224.093 56.475 Q 219.691 54.235 217.25 51.45 A 13.924 13.924 0 0 1 214.139 45.126 A 20.219 20.219 0 0 1 213.7 40.8 Q 213.7 36.4 216.35 33.1 Q 219 29.8 223.65 27.95 A 26.107 26.107 0 0 1 230.54 26.281 A 32.327 32.327 0 0 1 234 26.1 A 51.143 51.143 0 0 1 237.805 26.234 Q 239.533 26.363 241.057 26.617 A 28.745 28.745 0 0 1 242.05 26.8 Q 245.481 27.496 247.577 28.193 A 23.273 23.273 0 0 1 247.6 28.2 A 246.112 246.112 0 0 0 248.452 28.482 Q 249.853 28.944 250.4 29.1 L 250.4 41.5 L 244.3 41.5 L 242.3 34.1 A 2.451 2.451 0 0 0 241.701 33.359 Q 241.066 32.806 239.914 32.344 A 13.256 13.256 0 0 0 239.1 32.05 A 16.996 16.996 0 0 0 235.662 31.325 A 21.692 21.692 0 0 0 233.3 31.2 Q 229.701 31.2 227.221 32.48 A 9.016 9.016 0 0 0 226.05 33.2 Q 223.401 35.127 223.304 38.353 A 8.222 8.222 0 0 0 223.3 38.6 A 10.213 10.213 0 0 0 223.521 40.784 A 7.122 7.122 0 0 0 224.75 43.55 Q 226.2 45.5 228.4 46.7 Q 230.6 47.9 234.4 49.5 L 236.4 50.3 A 103.146 103.146 0 0 1 240.154 51.856 Q 243.258 53.219 245.5 54.5 Q 249 56.5 251.35 59.75 Q 253.7 63 253.7 67.7 A 15.309 15.309 0 0 1 252.599 73.601 Q 251.184 77.025 247.95 79.5 A 19.754 19.754 0 0 1 241.383 82.73 Q 237.356 83.9 232.2 83.9 A 39.604 39.604 0 0 1 225.25 83.262 A 47.649 47.649 0 0 1 221.95 82.55 Q 218.099 81.579 215.259 80.581 A 41.778 41.778 0 0 1 213.2 79.8 L 213.2 67 L 219.7 67 Z" id="4" vector-effect="non-scaling-stroke"/><path d="M 262.6 82.8 L 262.6 77.9 L 268.7 77 L 268.7 35 L 261.5 33.2 L 261.5 27.8 L 275.8 26 L 277.6 27.3 L 278.2 31.3 L 278.1 34.5 Q 280.886 31.953 285.287 29.755 A 51.761 51.761 0 0 1 287.65 28.65 A 37.497 37.497 0 0 1 292.012 27.035 Q 294.301 26.356 296.38 26.122 A 18.994 18.994 0 0 1 298.5 26 A 26.475 26.475 0 0 1 301.964 26.213 Q 305.034 26.619 307.2 27.8 A 11.126 11.126 0 0 1 311.614 32.234 A 14.262 14.262 0 0 1 312.2 33.4 A 23.133 23.133 0 0 1 314.959 31.424 Q 316.42 30.521 318.196 29.661 A 51.546 51.546 0 0 1 321.15 28.35 A 34.625 34.625 0 0 1 326.038 26.744 Q 328.897 26.047 331.548 26.003 A 21.449 21.449 0 0 1 331.9 26 A 26.641 26.641 0 0 1 335.511 26.23 Q 337.439 26.494 339.017 27.063 A 11.769 11.769 0 0 1 341.6 28.35 A 11.334 11.334 0 0 1 345.243 32.428 A 16.3 16.3 0 0 1 346.55 35.65 A 30.019 30.019 0 0 1 347.376 39.449 Q 347.688 41.451 347.844 43.814 A 77.403 77.403 0 0 1 348 48.9 L 348 77 L 355.2 77.9 L 355.2 82.8 L 331.4 82.8 L 331.4 77.9 L 337.6 77 L 337.6 49.2 A 65.048 65.048 0 0 0 337.517 45.805 Q 337.334 42.322 336.75 39.95 A 11.014 11.014 0 0 0 335.902 37.609 A 7.662 7.662 0 0 0 333.55 34.8 A 7.855 7.855 0 0 0 331.302 33.699 Q 330.239 33.362 328.948 33.215 A 18.965 18.965 0 0 0 326.8 33.1 A 17.081 17.081 0 0 0 322.851 33.585 A 22.813 22.813 0 0 0 319.8 34.55 Q 316.1 36 313.5 38 A 27.586 27.586 0 0 1 313.97 40.721 Q 314.339 43.644 314.391 47.731 A 107.665 107.665 0 0 1 314.4 49.1 L 314.4 77 L 321.5 77.9 L 321.5 82.8 L 297.3 82.8 L 297.3 77.9 L 303.9 77 L 303.9 49 Q 303.9 43.587 303.289 40.371 A 19.139 19.139 0 0 0 303.15 39.7 A 11.092 11.092 0 0 0 302.417 37.499 Q 301.629 35.794 300.3 34.75 A 6.606 6.606 0 0 0 298.329 33.715 Q 296.525 33.1 293.9 33.1 Q 290.3 33.1 286.25 34.9 Q 282.2 36.7 279.2 39.1 L 279.2 77 L 285.9 77.9 L 285.9 82.8 L 262.6 82.8 Z" id="5" vector-effect="non-scaling-stroke"/><path d="M 394.4 76.8 L 394.4 14.7 L 386.4 13.5 L 386.4 8.5 L 405 8.5 L 438.3 57.3 L 443.9 67.9 L 443.9 14.7 L 435.2 13.5 L 435.2 8.5 L 458.8 8.5 L 458.8 13.5 L 450.8 14.7 L 450.8 82.8 L 442.9 82.8 L 408.9 32.9 L 401.2 19.7 L 401.2 76.9 L 410.7 77.9 L 410.7 82.8 L 386.4 82.8 L 386.4 77.9 L 394.4 76.8 Z" id="7" vector-effect="non-scaling-stroke"/><path d="M 510.9 55 L 476.5 55 A 37.502 37.502 0 0 0 477.186 61.619 Q 477.939 65.369 479.507 68.373 A 20.485 20.485 0 0 0 481.1 70.95 A 14.135 14.135 0 0 0 491.395 76.88 A 19.764 19.764 0 0 0 493.6 77 A 24.574 24.574 0 0 0 499.001 76.376 A 30.497 30.497 0 0 0 501.95 75.55 A 30.484 30.484 0 0 0 504.71 74.488 Q 507.125 73.413 508.7 72.1 L 510.6 76.5 Q 507.7 79.5 502 81.7 Q 496.3 83.9 490.4 83.9 Q 478.3 83.9 471.95 76 Q 465.6 68.1 465.6 54.9 Q 465.6 46.2 468.9 39.6 A 25.099 25.099 0 0 1 474.61 32.014 A 23.716 23.716 0 0 1 478.15 29.4 A 25.036 25.036 0 0 1 489.365 25.888 A 30.558 30.558 0 0 1 491.7 25.8 Q 499.441 25.8 504.307 29.368 A 15.903 15.903 0 0 1 506.15 30.95 A 17.419 17.419 0 0 1 510.407 38.144 Q 511.469 41.495 511.6 45.7 A 86.321 86.321 0 0 1 511.545 48.902 Q 511.403 52.7 510.9 55 Z M 476.6 49.7 L 500.6 49.7 Q 500.9 47.6 500.9 45.4 Q 500.828 40.721 499.435 37.467 A 12.578 12.578 0 0 0 498.15 35.15 A 8.518 8.518 0 0 0 492.916 31.731 A 13.773 13.773 0 0 0 489.8 31.4 A 12.942 12.942 0 0 0 485.475 32.093 A 11.045 11.045 0 0 0 480.55 35.6 Q 477.1 39.8 476.6 49.7 Z" id="8" vector-effect="non-scaling-stroke"/><path d="M 523 77 L 540.1 55.1 L 523.2 33.2 L 517.6 32 L 517.6 27.3 L 543 27.3 L 543 32 L 536 33.2 L 545.1 46.1 L 547.9 50.4 L 550.6 46.1 L 560.1 33.2 L 552.8 32 L 552.8 27.3 L 573.9 27.3 L 573.9 32 L 567.9 33.2 L 551.3 53.9 L 569 77.1 L 574.8 78 L 574.8 82.8 L 549.1 82.8 L 549.1 78 L 555.7 77 L 546.6 63.5 L 543.6 59 L 540.9 63.4 L 531.3 77 L 539.6 78 L 539.6 82.8 L 516.3 82.8 L 516.3 78 L 523 77 Z" id="9" vector-effect="non-scaling-stroke"/><path d="M 619.7 79 L 619.7 75.6 A 28.619 28.619 0 0 1 615.266 79.193 A 37.344 37.344 0 0 1 611.45 81.4 A 23.479 23.479 0 0 1 605.574 83.484 A 20.242 20.242 0 0 1 601.5 83.9 A 27.122 27.122 0 0 1 596.726 83.51 Q 594.182 83.054 592.213 82.065 A 11.331 11.331 0 0 1 588.3 78.9 Q 584.784 74.392 584.438 64.599 A 62.341 62.341 0 0 1 584.4 62.4 L 584.4 33.4 L 578.8 31.8 L 578.8 27.4 L 592.8 26.1 L 592.9 26.1 L 594.8 27.3 L 594.8 61.6 Q 594.8 66.977 595.531 70.163 A 16.539 16.539 0 0 0 595.65 70.65 Q 596.408 73.547 598.198 75.093 A 6.565 6.565 0 0 0 598.65 75.45 A 7.151 7.151 0 0 0 600.696 76.446 Q 601.655 76.749 602.822 76.886 A 17.84 17.84 0 0 0 604.9 77 Q 608.9 77 612.4 75.3 Q 615.9 73.6 618.5 71.3 L 618.5 33.4 L 611.3 31.8 L 611.3 27.4 L 626.5 26.1 L 626.6 26.1 L 628.9 27.3 L 628.9 77.7 L 634.9 77.7 L 634.8 82.2 A 129.967 129.967 0 0 1 632.805 82.683 Q 631.822 82.912 630.952 83.096 A 65.906 65.906 0 0 1 629.95 83.3 A 20.102 20.102 0 0 1 628.032 83.574 Q 627.047 83.668 625.947 83.692 A 34.635 34.635 0 0 1 625.2 83.7 A 11.418 11.418 0 0 1 623.74 83.613 Q 622.02 83.391 621.05 82.6 A 3.355 3.355 0 0 1 620.017 81.094 Q 619.814 80.528 619.741 79.828 A 8 8 0 0 1 619.7 79 Z" id="10" vector-effect="non-scaling-stroke"/><path d="M 650.4 67 L 652.2 74.8 A 4.298 4.298 0 0 0 653.071 75.73 Q 654.002 76.49 655.592 77.161 A 20.019 20.019 0 0 0 656.45 77.5 Q 659.7 78.7 663.3 78.7 Q 669 78.7 671.7 76.5 A 7.182 7.182 0 0 0 674.347 71.464 A 10.305 10.305 0 0 0 674.4 70.4 Q 674.4 67.7 672.7 65.7 A 12.25 12.25 0 0 0 670.81 63.924 Q 669.841 63.181 668.641 62.516 A 21.967 21.967 0 0 0 667.95 62.15 Q 664.9 60.6 659.2 58.4 A 43.602 43.602 0 0 1 654.793 56.475 Q 650.391 54.235 647.95 51.45 A 13.924 13.924 0 0 1 644.839 45.126 A 20.219 20.219 0 0 1 644.4 40.8 Q 644.4 36.4 647.05 33.1 Q 649.7 29.8 654.35 27.95 A 26.107 26.107 0 0 1 661.24 26.281 A 32.327 32.327 0 0 1 664.7 26.1 A 51.143 51.143 0 0 1 668.505 26.234 Q 670.233 26.363 671.757 26.617 A 28.745 28.745 0 0 1 672.75 26.8 Q 676.181 27.496 678.277 28.193 A 23.273 23.273 0 0 1 678.3 28.2 A 246.112 246.112 0 0 0 679.152 28.482 Q 680.553 28.944 681.1 29.1 L 681.1 41.5 L 675 41.5 L 673 34.1 A 2.451 2.451 0 0 0 672.401 33.359 Q 671.766 32.806 670.614 32.344 A 13.256 13.256 0 0 0 669.8 32.05 A 16.996 16.996 0 0 0 666.362 31.325 A 21.692 21.692 0 0 0 664 31.2 Q 660.401 31.2 657.921 32.48 A 9.016 9.016 0 0 0 656.75 33.2 Q 654.101 35.127 654.004 38.353 A 8.222 8.222 0 0 0 654 38.6 A 10.213 10.213 0 0 0 654.221 40.784 A 7.122 7.122 0 0 0 655.45 43.55 Q 656.9 45.5 659.1 46.7 Q 661.3 47.9 665.1 49.5 L 667.1 50.3 A 103.146 103.146 0 0 1 670.854 51.856 Q 673.958 53.219 676.2 54.5 Q 679.7 56.5 682.05 59.75 Q 684.4 63 684.4 67.7 A 15.309 15.309 0 0 1 683.299 73.601 Q 681.884 77.025 678.65 79.5 A 19.754 19.754 0 0 1 672.083 82.73 Q 668.056 83.9 662.9 83.9 A 39.604 39.604 0 0 1 655.95 83.262 A 47.649 47.649 0 0 1 652.65 82.55 Q 648.799 81.579 645.959 80.581 A 41.778 41.778 0 0 1 643.9 79.8 L 643.9 67 L 650.4 67 Z" id="11" vector-effect="non-scaling-stroke"/><path d="M 717.886 47.113 A 36.829 36.829 0 0 0 717.1 54.9 A 51.639 51.639 0 0 0 717.118 56.257 Q 717.435 68.322 723.45 75.9 A 20.297 20.297 0 0 0 734.825 83.044 A 31.456 31.456 0 0 0 742.4 83.9 Q 749.3 83.9 755.35 80.5 A 23.991 23.991 0 0 0 759.957 77.136 A 27.037 27.037 0 0 0 765.1 70.5 A 28.049 28.049 0 0 0 768.092 62.284 A 37.734 37.734 0 0 0 768.8 54.8 A 51.639 51.639 0 0 0 768.782 53.443 Q 768.465 41.378 762.45 33.8 A 20.297 20.297 0 0 0 751.075 26.656 A 31.456 31.456 0 0 0 743.5 25.8 Q 736.6 25.8 730.55 29.25 A 24.396 24.396 0 0 0 726.102 32.499 A 27.267 27.267 0 0 0 720.8 39.3 A 27.938 27.938 0 0 0 717.886 47.113 Z M 743 78.2 Q 749.9 78.2 753.6 72.5 A 19.179 19.179 0 0 0 755.782 67.693 Q 757.3 62.775 757.3 55.6 A 58.909 58.909 0 0 0 756.934 48.811 Q 756.184 42.367 753.9 38 A 12.62 12.62 0 0 0 750.793 34.055 Q 748.282 31.979 744.707 31.59 A 15.766 15.766 0 0 0 743 31.5 A 13.257 13.257 0 0 0 737.958 32.423 Q 734.591 33.793 732.35 37.2 A 19.164 19.164 0 0 0 730.102 42.128 Q 728.647 46.86 728.601 53.659 A 65.937 65.937 0 0 0 728.6 54.1 Q 728.6 61.69 730.236 67.129 A 24.517 24.517 0 0 0 732.1 71.7 A 13.062 13.062 0 0 0 735.177 75.581 Q 737.814 77.791 741.57 78.136 A 15.615 15.615 0 0 0 743 78.2 Z" id="13" vector-effect="non-scaling-stroke"/><path d="M 785.9 77 L 785.9 33.9 L 776.5 33.9 L 776.5 29.3 L 785.9 27.4 L 785.9 22.7 Q 785.9 16.5 789.15 11.3 Q 792.4 6.1 797.65 3.05 Q 802.9 0 808.8 0 Q 812.2 0 814.7 0.9 L 814.7 10.9 A 3.651 3.651 0 0 0 814.098 10.479 Q 813.425 10.09 812.326 9.714 A 23.017 23.017 0 0 0 811.15 9.35 A 19.694 19.694 0 0 0 807.634 8.707 A 24.823 24.823 0 0 0 805.3 8.6 Q 802.323 8.6 800.369 9.583 A 6.269 6.269 0 0 0 798.45 11.05 Q 796.524 13.245 796.323 18.291 A 30.504 30.504 0 0 0 796.3 19.5 L 796.3 27.4 L 810.1 27.4 L 810.1 33.9 L 796.3 33.9 L 796.3 77.1 L 807.4 77.9 L 807.4 82.8 L 777.4 82.8 L 777.4 77.9 L 785.9 77 Z" id="14" vector-effect="non-scaling-stroke"/><path d="M 863.954 83.064 A 36.84 36.84 0 0 0 872 83.9 Q 881.6 83.9 889.35 79.05 Q 897.1 74.2 901.55 65.35 Q 906 56.5 906 44.8 A 67.524 67.524 0 0 0 905.863 40.448 Q 905.486 34.604 904.064 29.715 A 33.045 33.045 0 0 0 897.75 17.55 A 26.394 26.394 0 0 0 883.654 8.838 A 39.36 39.36 0 0 0 873.9 7.7 Q 864.4 7.7 856.8 12.45 Q 849.2 17.2 844.85 25.9 A 39.655 39.655 0 0 0 841.521 35.616 A 51.491 51.491 0 0 0 840.5 46.1 A 60.744 60.744 0 0 0 841.189 55.461 A 44.676 44.676 0 0 0 844.1 65.95 A 35.087 35.087 0 0 0 845.181 68.279 A 28.282 28.282 0 0 0 854.75 79.2 A 27.069 27.069 0 0 0 863.954 83.064 Z M 873.3 12.9 Q 863.6 12.9 858 21.35 A 28.594 28.594 0 0 0 854.587 28.792 Q 852.404 35.899 852.4 46.062 A 97.692 97.692 0 0 0 852.4 46.1 Q 852.4 61.1 857.85 69.85 A 20.152 20.152 0 0 0 862.329 75.009 Q 866.681 78.488 872.709 78.597 A 21.664 21.664 0 0 0 873.1 78.6 A 16.813 16.813 0 0 0 886.291 72.634 A 23.65 23.65 0 0 0 888.35 69.9 Q 892.376 63.701 893.533 53.644 A 76.678 76.678 0 0 0 894 44.9 A 68.542 68.542 0 0 0 893.473 36.112 Q 892.893 31.636 891.674 27.945 A 29.169 29.169 0 0 0 888.6 21.35 A 19.106 19.106 0 0 0 883.695 16.038 Q 879.333 12.9 873.3 12.9 Z" id="16" vector-effect="non-scaling-stroke"/><path d="M 914 82.8 L 914 77.9 L 921.5 77.3 L 921.5 35 L 914.3 33.2 L 914.3 27.8 L 928.1 26 L 928.3 26 L 930.5 27.8 L 930.5 29.6 L 930.2 37.4 L 930.5 37.4 A 12.765 12.765 0 0 1 931.235 36.303 Q 932.272 34.899 934.1 33 Q 936.7 30.3 940.8 28.05 Q 944.9 25.8 949.7 25.8 Q 951.179 25.8 952.276 26.074 A 6.195 6.195 0 0 1 953 26.3 L 953 37.5 A 3.863 3.863 0 0 0 952.509 37.208 Q 951.964 36.93 951.14 36.668 A 16.559 16.559 0 0 0 950.75 36.55 A 11.186 11.186 0 0 0 948.786 36.174 A 14.369 14.369 0 0 0 947.3 36.1 A 25.81 25.81 0 0 0 932.122 41.042 A 31.397 31.397 0 0 0 931.9 41.2 L 931.9 77.2 L 944.6 78 L 944.6 82.8 L 914 82.8 Z" id="17" vector-effect="non-scaling-stroke"/><path d="M 1004.7 55 L 970.3 55 A 37.502 37.502 0 0 0 970.986 61.619 Q 971.739 65.369 973.307 68.373 A 20.485 20.485 0 0 0 974.9 70.95 A 14.135 14.135 0 0 0 985.195 76.88 A 19.764 19.764 0 0 0 987.4 77 A 24.574 24.574 0 0 0 992.801 76.376 A 30.497 30.497 0 0 0 995.75 75.55 A 30.484 30.484 0 0 0 998.51 74.488 Q 1000.925 73.413 1002.5 72.1 L 1004.4 76.5 Q 1001.5 79.5 995.8 81.7 Q 990.1 83.9 984.2 83.9 Q 972.1 83.9 965.75 76 Q 959.4 68.1 959.4 54.9 Q 959.4 46.2 962.7 39.6 A 25.099 25.099 0 0 1 968.41 32.014 A 23.716 23.716 0 0 1 971.95 29.4 A 25.036 25.036 0 0 1 983.165 25.888 A 30.558 30.558 0 0 1 985.5 25.8 Q 993.241 25.8 998.107 29.368 A 15.903 15.903 0 0 1 999.95 30.95 A 17.419 17.419 0 0 1 1004.207 38.144 Q 1005.269 41.495 1005.4 45.7 A 86.321 86.321 0 0 1 1005.345 48.902 Q 1005.203 52.7 1004.7 55 Z M 970.4 49.7 L 994.4 49.7 Q 994.7 47.6 994.7 45.4 Q 994.628 40.721 993.235 37.467 A 12.578 12.578 0 0 0 991.95 35.15 A 8.518 8.518 0 0 0 986.716 31.731 A 13.773 13.773 0 0 0 983.6 31.4 A 12.942 12.942 0 0 0 979.275 32.093 A 11.045 11.045 0 0 0 974.35 35.6 Q 970.9 39.8 970.4 49.7 Z" id="18" vector-effect="non-scaling-stroke"/><path d="M 1065.8 25.7 L 1069.2 25.7 L 1069.2 34.5 L 1058.2 34.5 Q 1060.6 38.2 1060.6 43.1 A 20.043 20.043 0 0 1 1059.621 49.451 A 17.826 17.826 0 0 1 1057.65 53.55 A 19.313 19.313 0 0 1 1050.256 60.197 A 23.26 23.26 0 0 1 1049.45 60.6 A 25.762 25.762 0 0 1 1041.206 62.902 A 32.09 32.09 0 0 1 1037.6 63.1 A 35.222 35.222 0 0 1 1033.585 62.882 A 25.986 25.986 0 0 1 1029.9 62.2 Q 1028.5 63.6 1027.6 65.3 A 8.333 8.333 0 0 0 1026.969 66.82 A 6.222 6.222 0 0 0 1026.7 68.6 A 8.366 8.366 0 0 0 1026.885 70.424 Q 1027.133 71.533 1027.714 72.329 A 4.301 4.301 0 0 0 1029.1 73.55 Q 1031.5 74.9 1037.7 74.9 L 1049 74.9 Q 1058.439 74.9 1063.143 78.403 A 12.063 12.063 0 0 1 1063.4 78.6 A 12.03 12.03 0 0 1 1067.961 86.854 A 17.566 17.566 0 0 1 1068.1 89.1 A 15.25 15.25 0 0 1 1065.017 98.272 A 19.909 19.909 0 0 1 1064 99.55 A 25.12 25.12 0 0 1 1057.773 104.7 A 33.463 33.463 0 0 1 1052.95 107.05 Q 1046 109.8 1037.9 109.8 Q 1026.782 109.8 1020.983 106.745 A 14.864 14.864 0 0 1 1019.35 105.75 A 13.624 13.624 0 0 1 1015.344 101.496 Q 1013.6 98.511 1013.6 94.6 Q 1013.6 90.2 1016.35 86.5 A 19.212 19.212 0 0 1 1020.412 82.419 A 17.293 17.293 0 0 1 1022.9 80.9 A 8.531 8.531 0 0 1 1018.505 74.805 A 12.382 12.382 0 0 1 1018.3 72.5 A 12.107 12.107 0 0 1 1020.208 66.001 A 14.616 14.616 0 0 1 1020.4 65.7 Q 1022.5 62.5 1025.9 60.8 Q 1020.9 58.6 1018.25 54.5 A 16.435 16.435 0 0 1 1015.81 47.831 A 21.265 21.265 0 0 1 1015.6 44.8 A 17.414 17.414 0 0 1 1016.572 38.905 A 15.682 15.682 0 0 1 1018.85 34.7 A 20.538 20.538 0 0 1 1026.305 28.627 A 24.652 24.652 0 0 1 1027.45 28.1 Q 1032.8 25.8 1038.8 25.8 A 39.214 39.214 0 0 1 1044.954 26.252 Q 1048.214 26.771 1050.85 27.886 A 18.318 18.318 0 0 1 1054.6 30 A 9.702 9.702 0 0 1 1055.82 28.981 Q 1057.155 28.026 1059.168 27.114 A 30.562 30.562 0 0 1 1059.2 27.1 Q 1062.3 25.7 1065.8 25.7 Z M 1046.1 83 L 1034.3 83 A 52.054 52.054 0 0 1 1031.966 82.951 Q 1029.833 82.855 1028.342 82.57 A 14.001 14.001 0 0 1 1028 82.5 A 16.231 16.231 0 0 0 1025.057 86.961 A 14.006 14.006 0 0 0 1023.9 92.6 A 14.69 14.69 0 0 0 1024.266 95.984 Q 1025.016 99.152 1027.3 101.1 A 9.734 9.734 0 0 0 1030.193 102.751 Q 1033.484 104 1038.8 104 A 29.523 29.523 0 0 0 1046.608 102.987 A 27.266 27.266 0 0 0 1048.05 102.55 A 19.274 19.274 0 0 0 1051.877 100.817 A 15.106 15.106 0 0 0 1055.1 98.25 Q 1057.8 95.4 1057.8 91.6 A 13.342 13.342 0 0 0 1057.599 89.203 Q 1057.106 86.508 1055.4 85.05 Q 1053.476 83.406 1048.658 83.081 A 38.038 38.038 0 0 0 1046.1 83 Z M 1038.6 57.6 A 13.669 13.669 0 0 0 1043.453 56.808 Q 1049.474 54.53 1049.958 45.694 A 29.172 29.172 0 0 0 1050 44.1 A 24.132 24.132 0 0 0 1049.754 40.523 Q 1049.147 36.49 1047.05 34.25 Q 1044.479 31.505 1039.668 31.152 A 20.078 20.078 0 0 0 1038.2 31.1 A 16.009 16.009 0 0 0 1034.553 31.492 Q 1031.553 32.193 1029.5 34.15 A 9.187 9.187 0 0 0 1027.257 37.664 Q 1026.719 39.111 1026.483 40.903 A 23.049 23.049 0 0 0 1026.3 43.9 A 21.147 21.147 0 0 0 1026.66 47.924 Q 1027.128 50.336 1028.203 52.23 A 11.68 11.68 0 0 0 1029.35 53.9 A 9.689 9.689 0 0 0 1034.393 57.08 Q 1036.025 57.531 1037.99 57.591 A 20.007 20.007 0 0 0 1038.6 57.6 Z" id="19" vector-effect="non-scaling-stroke"/><path d="M 1075.486 47.113 A 36.829 36.829 0 0 0 1074.7 54.9 A 51.639 51.639 0 0 0 1074.718 56.257 Q 1075.035 68.322 1081.05 75.9 A 20.297 20.297 0 0 0 1092.425 83.044 A 31.456 31.456 0 0 0 1100 83.9 Q 1106.9 83.9 1112.95 80.5 A 23.991 23.991 0 0 0 1117.557 77.136 A 27.037 27.037 0 0 0 1122.7 70.5 A 28.049 28.049 0 0 0 1125.692 62.284 A 37.734 37.734 0 0 0 1126.4 54.8 A 51.639 51.639 0 0 0 1126.382 53.443 Q 1126.065 41.378 1120.05 33.8 A 20.297 20.297 0 0 0 1108.675 26.656 A 31.456 31.456 0 0 0 1101.1 25.8 Q 1094.2 25.8 1088.15 29.25 A 24.396 24.396 0 0 0 1083.702 32.499 A 27.267 27.267 0 0 0 1078.4 39.3 A 27.938 27.938 0 0 0 1075.486 47.113 Z M 1100.6 78.2 Q 1107.5 78.2 1111.2 72.5 A 19.179 19.179 0 0 0 1113.382 67.693 Q 1114.9 62.775 1114.9 55.6 A 58.909 58.909 0 0 0 1114.534 48.811 Q 1113.784 42.367 1111.5 38 A 12.62 12.62 0 0 0 1108.393 34.055 Q 1105.882 31.979 1102.307 31.59 A 15.766 15.766 0 0 0 1100.6 31.5 A 13.257 13.257 0 0 0 1095.558 32.423 Q 1092.191 33.793 1089.95 37.2 A 19.164 19.164 0 0 0 1087.702 42.128 Q 1086.247 46.86 1086.201 53.659 A 65.937 65.937 0 0 0 1086.2 54.1 Q 1086.2 61.69 1087.836 67.129 A 24.517 24.517 0 0 0 1089.7 71.7 A 13.062 13.062 0 0 0 1092.777 75.581 Q 1095.414 77.791 1099.17 78.136 A 15.615 15.615 0 0 0 1100.6 78.2 Z" id="20" vector-effect="non-scaling-stroke"/><path d="M 1141.5 77 L 1141.5 35 L 1134.3 33.2 L 1134.3 27.8 L 1148.6 26 L 1148.9 26 L 1151 27.8 L 1151 32 L 1150.9 34.4 A 28.275 28.275 0 0 1 1154.49 31.715 Q 1157.081 30.063 1160.4 28.6 A 32.468 32.468 0 0 1 1165.998 26.691 A 24.684 24.684 0 0 1 1171.7 26 Q 1178 26 1181.45 28.4 A 11.434 11.434 0 0 1 1185.029 32.522 A 16.432 16.432 0 0 1 1186.3 35.75 Q 1187.7 40.7 1187.7 49.1 L 1187.7 77.1 L 1194.7 77.8 L 1194.7 82.8 L 1171 82.8 L 1171 77.9 L 1177.2 77.1 L 1177.2 49 Q 1177.2 43.528 1176.512 40.249 A 18.601 18.601 0 0 0 1176.4 39.75 A 10.999 10.999 0 0 0 1175.613 37.498 Q 1174.874 35.975 1173.696 34.985 A 6.858 6.858 0 0 0 1173.4 34.75 A 7.219 7.219 0 0 0 1171.282 33.682 Q 1170.28 33.356 1169.056 33.212 A 17.716 17.716 0 0 0 1167 33.1 A 16.5 16.5 0 0 0 1163.034 33.608 Q 1161.335 34.028 1159.54 34.796 A 27.382 27.382 0 0 0 1159.3 34.9 A 38.925 38.925 0 0 0 1154.306 37.521 A 32.955 32.955 0 0 0 1152 39.1 L 1152 77 L 1158.8 77.9 L 1158.8 82.8 L 1135.2 82.8 L 1135.2 77.9 L 1141.5 77 Z" id="21" vector-effect="non-scaling-stroke"/></g></svg>